<svg width="46" height="34" viewBox="0 0 46 34" fill="none" xmlns="http://www.w3.org/2000/svg">
<path d="M26.5889 23.1393C26.0065 21.1339 25.7126 19.047 25.7169 16.9489V15.1693C25.7579 14.6206 25.8169 14.0825 25.9079 13.5486C25.9169 13.4101 25.9397 13.2731 25.9759 13.1397C26.0029 13.0052 26.0079 12.9469 26.0299 12.8516C26.0519 12.7562 26.0749 12.6111 26.0979 12.4861C26.1889 12.0529 26.2839 11.6249 26.3979 11.2065C26.4249 11.1101 26.4479 11.0137 26.4749 10.9226L26.5839 10.5476C26.6306 10.3845 26.685 10.224 26.7469 10.0667C26.8059 9.92267 26.8559 9.73518 26.9149 9.58582C26.9739 9.43647 27.0329 9.25427 27.0969 9.10491L27.2879 8.624C27.3519 8.46511 27.4239 8.30621 27.4969 8.14308L27.7099 7.66217L27.9599 7.14736C28.0279 7.00754 28.1009 6.87301 28.1689 6.74378C28.3279 6.44082 28.5009 6.13787 28.6779 5.84445C28.7599 5.69509 28.8509 5.55103 28.9409 5.40697C29.0309 5.26291 29.1039 5.15168 29.1909 5.02669C29.2779 4.90169 29.3409 4.79576 29.4229 4.67501C29.5049 4.55425 29.5769 4.45362 29.6549 4.33815L29.9819 3.95787C30.1784 3.68619 30.3153 3.37153 30.3826 3.03679C30.45 2.70204 30.4461 2.35561 30.3712 2.02267C30.2963 1.68972 30.1523 1.37864 29.9497 1.11202C29.7471 0.845404 29.491 0.62995 29.1999 0.481319L28.4779 0.0915047C28.1028 0.0265412 27.723 -0.00393831 27.3429 0.000406669H6.74691C5.57825 -0.0120196 4.42697 0.300759 3.40821 0.907467C2.38945 1.51418 1.5389 2.39355 0.941603 3.45767C0.344308 4.5218 0.0211978 5.73337 0.0045812 6.97125C-0.0120354 8.20914 0.278423 9.42995 0.846915 10.5116L11.2119 30.2057C11.7759 31.2805 12.5948 32.1807 13.5878 32.8175C14.5807 33.4543 15.7134 33.8056 16.8738 33.8368C18.0342 33.8679 19.1822 33.5778 20.2043 32.995C21.2264 32.4123 22.0873 31.5571 22.7019 30.514C23.325 31.6123 24.2216 32.5076 25.2935 33.1016C26.3653 33.6956 27.5709 33.9655 28.7779 33.8814C29.1579 33.8523 29.5229 33.7129 29.8331 33.4785C30.1432 33.2441 30.3864 32.9238 30.5361 32.5527C30.6858 32.1815 30.7361 31.7739 30.6815 31.3745C30.627 30.9751 30.4697 30.5994 30.2269 30.2884C28.5832 28.1813 27.347 25.7521 26.5889 23.1393Z" fill="#293D80"/>
<path d="M43.4469 2.02997C40.2467 3.12982 37.4572 5.27434 35.478 8.15634C33.4988 11.0383 32.4315 14.5099 32.429 18.0738C32.429 18.2274 32.429 18.3821 32.429 18.5547C32.519 21.9191 33.5645 25.1765 35.429 27.9018L44.5709 10.4587C45.2812 9.11733 45.5559 7.56602 45.3529 6.04322C45.1498 4.52041 44.4802 3.1104 43.4469 2.02997Z" fill="#293D80"/>
</svg>
