<svg width="24" height="24" viewBox="0 0 24 24" fill="none" xmlns="http://www.w3.org/2000/svg">
<path d="M12 0C9.62663 0 7.30655 0.703788 5.33316 2.02236C3.35977 3.34094 1.8217 5.21508 0.913451 7.4078C0.0051994 9.60051 -0.232441 12.0133 0.230582 14.3411C0.693605 16.6689 1.83649 18.807 3.51472 20.4853C5.19295 22.1635 7.33115 23.3064 9.65892 23.7694C11.9867 24.2324 14.3995 23.9948 16.5922 23.0865C18.7849 22.1783 20.6591 20.6402 21.9776 18.6668C23.2962 16.6934 24 14.3734 24 12C24 8.8174 22.7357 5.76515 20.4853 3.51472C18.2348 1.26428 15.1826 0 12 0ZM6.85715 20.8971V19.1829C6.81951 18.459 7.0681 17.7495 7.54923 17.2074C8.03036 16.6653 8.70541 16.3343 9.42858 16.2857H14.5714C15.2962 16.3342 15.9726 16.6665 16.4539 17.2104C16.9353 17.7544 17.1828 18.4662 17.1429 19.1914V20.9057C15.5815 21.8152 13.8069 22.2944 12 22.2944C10.1931 22.2944 8.41847 21.8152 6.85715 20.9057V20.8971ZM18.8571 19.6457V19.1229C18.8805 17.9543 18.4448 16.8231 17.6435 15.9721C16.8423 15.1212 15.7393 14.6183 14.5714 14.5714H9.42858C8.25994 14.6161 7.15569 15.1183 6.35396 15.9698C5.55224 16.8212 5.11727 17.9536 5.14286 19.1229V19.6286C3.5902 18.2398 2.4958 16.4124 2.00448 14.388C1.51316 12.3637 1.64807 10.2379 2.39138 8.29188C3.13468 6.34589 4.45133 4.67146 6.1671 3.49015C7.88287 2.30884 9.91689 1.67634 12 1.67634C14.0831 1.67634 16.1171 2.30884 17.8329 3.49015C19.5487 4.67146 20.8653 6.34589 21.6086 8.29188C22.3519 10.2379 22.4868 12.3637 21.9955 14.388C21.5042 16.4124 20.4098 18.2398 18.8571 19.6286V19.6457Z" fill="#293D80"/>
<path d="M12 4.28571C11.1524 4.28571 10.3238 4.53706 9.61898 5.00798C8.9142 5.4789 8.36489 6.14824 8.04052 6.93135C7.71614 7.71446 7.63127 8.57617 7.79663 9.40752C7.962 10.2389 8.37017 11.0025 8.96954 11.6019C9.56891 12.2012 10.3326 12.6094 11.1639 12.7748C11.9952 12.9401 12.857 12.8553 13.6401 12.5309C14.4232 12.2065 15.0925 11.6572 15.5634 10.9524C16.0344 10.2477 16.2857 9.41905 16.2857 8.57142C16.2857 7.43478 15.8342 6.34469 15.0305 5.54096C14.2267 4.73723 13.1366 4.28571 12 4.28571ZM12 11.1428C11.4914 11.1428 10.9943 10.992 10.5714 10.7095C10.1485 10.4269 9.81893 10.0253 9.62431 9.55546C9.42968 9.0856 9.37876 8.56857 9.47798 8.06976C9.5772 7.57095 9.8221 7.11277 10.1817 6.75314C10.5413 6.39352 10.9995 6.14862 11.4983 6.0494C11.9971 5.95018 12.5142 6.0011 12.984 6.19573C13.4539 6.39035 13.8555 6.71994 14.1381 7.14281C14.4206 7.56568 14.5714 8.06284 14.5714 8.57142C14.5714 9.2534 14.3005 9.90746 13.8183 10.3897C13.336 10.8719 12.682 11.1428 12 11.1428Z" fill="#293D80"/>
</svg>
