<svg width="16" height="16" viewBox="0 0 16 16" fill="none" xmlns="http://www.w3.org/2000/svg">
<path d="M6.66671 12C7.85003 11.9997 8.99924 11.6036 9.93137 10.8746L12.862 13.8053L13.8047 12.8626L10.874 9.93198C11.6034 8.99976 11.9998 7.85027 12 6.66665C12 3.72598 9.60737 1.33331 6.66671 1.33331C3.72604 1.33331 1.33337 3.72598 1.33337 6.66665C1.33337 9.60731 3.72604 12 6.66671 12ZM6.66671 2.66665C8.87271 2.66665 10.6667 4.46065 10.6667 6.66665C10.6667 8.87265 8.87271 10.6666 6.66671 10.6666C4.46071 10.6666 2.66671 8.87265 2.66671 6.66665C2.66671 4.46065 4.46071 2.66665 6.66671 2.66665Z" fill="#848484"/>
</svg>
